<svg width="20" height="19" viewBox="0 0 20 19" fill="none" xmlns="http://www.w3.org/2000/svg">
<path d="M9.90259 6.76271C8.59049 6.76271 7.51972 7.83349 7.51972 9.14559C7.51972 10.4577 8.59049 11.5285 9.90259 11.5285C11.2147 11.5285 12.2855 10.4577 12.2855 9.14559C12.2855 7.83349 11.2147 6.76271 9.90259 6.76271ZM17.0494 9.14559C17.0494 8.15883 17.0584 7.18101 17.003 6.19604C16.9475 5.05198 16.6866 4.03661 15.85 3.20002C15.0116 2.36163 13.998 2.10243 12.8539 2.04701C11.8672 1.99159 10.8894 2.00053 9.90438 2.00053C8.91762 2.00053 7.9398 1.99159 6.95483 2.04701C5.81076 2.10243 4.7954 2.36342 3.9588 3.20002C3.12042 4.0384 2.86121 5.05198 2.8058 6.19604C2.75038 7.1828 2.75932 8.16062 2.75932 9.14559C2.75932 10.1306 2.75038 11.1102 2.8058 12.0951C2.86121 13.2392 3.1222 14.2546 3.9588 15.0912C4.79719 15.9296 5.81076 16.1888 6.95483 16.2442C7.94159 16.2996 8.91941 16.2907 9.90438 16.2907C10.8911 16.2907 11.869 16.2996 12.8539 16.2442C13.998 16.1888 15.0134 15.9278 15.85 15.0912C16.6883 14.2528 16.9475 13.2392 17.003 12.0951C17.0602 11.1102 17.0494 10.1324 17.0494 9.14559ZM9.90259 12.812C7.87366 12.812 6.23621 11.1745 6.23621 9.14559C6.23621 7.11666 7.87366 5.47921 9.90259 5.47921C11.9315 5.47921 13.569 7.11666 13.569 9.14559C13.569 11.1745 11.9315 12.812 9.90259 12.812ZM13.7191 6.18532C13.2454 6.18532 12.8629 5.80277 12.8629 5.32905C12.8629 4.85534 13.2454 4.47279 13.7191 4.47279C14.1928 4.47279 14.5754 4.85534 14.5754 5.32905C14.5755 5.44154 14.5535 5.55295 14.5105 5.6569C14.4675 5.76085 14.4045 5.8553 14.3249 5.93484C14.2454 6.01438 14.1509 6.07744 14.047 6.12043C13.943 6.16341 13.8316 6.18546 13.7191 6.18532Z" fill="white" fill-opacity="0.6"/>
</svg>
