<svg width="20" height="19" viewBox="0 0 20 19" fill="none" xmlns="http://www.w3.org/2000/svg">
<path d="M4.55053 5.48899C5.47219 5.48899 6.21934 4.74184 6.21934 3.82018C6.21934 2.89852 5.47219 2.15137 4.55053 2.15137C3.62887 2.15137 2.88171 2.89852 2.88171 3.82018C2.88171 4.74184 3.62887 5.48899 4.55053 5.48899Z" fill="white" fill-opacity="0.6"/>
<path d="M7.79493 6.7542V16.0128H10.6696V11.4342C10.6696 10.2261 10.8969 9.05607 12.3948 9.05607C13.8722 9.05607 13.8905 10.4373 13.8905 11.5105V16.0135H16.7667V10.9362C16.7667 8.44209 16.2298 6.52539 13.3147 6.52539C11.9151 6.52539 10.977 7.29344 10.5933 8.02031H10.5544V6.7542H7.79493ZM3.11035 6.7542H5.98959V16.0128H3.11035V6.7542Z" fill="white" fill-opacity="0.6"/>
</svg>
