<svg width="20" height="19" viewBox="0 0 20 19" fill="none" xmlns="http://www.w3.org/2000/svg">
<path d="M17.3385 4.54581C16.7915 4.78177 16.1963 4.95159 15.5831 5.01773C16.2197 4.63954 16.6964 4.04206 16.9238 3.33738C16.3265 3.69274 15.672 3.94192 14.9896 4.07388C14.7044 3.76896 14.3594 3.52605 13.9762 3.36028C13.593 3.19451 13.1798 3.10944 12.7623 3.11036C11.073 3.11036 9.7144 4.47967 9.7144 6.16001C9.7144 6.39598 9.743 6.63194 9.78948 6.85897C7.26001 6.72669 5.00406 5.51826 3.50425 3.66809C3.23097 4.13486 3.08777 4.66634 3.08953 5.20722C3.08953 6.26548 3.6276 7.19861 4.44811 7.74741C3.96457 7.72837 3.49235 7.59546 3.06987 7.3595V7.39704C3.06987 8.87896 4.1174 10.107 5.51352 10.3895C5.25139 10.4576 4.98172 10.4924 4.71089 10.4932C4.51246 10.4932 4.32476 10.4735 4.13528 10.4467C4.5214 11.6551 5.64581 12.5328 6.98472 12.5614C5.93719 13.3819 4.62508 13.8646 3.20036 13.8646C2.94473 13.8646 2.70877 13.8557 2.46387 13.8271C3.8153 14.694 5.41878 15.1946 7.14561 15.1946C12.7515 15.1946 15.8191 10.5504 15.8191 6.51932C15.8191 6.38704 15.8191 6.25476 15.8101 6.12247C16.4036 5.68809 16.9238 5.15002 17.3385 4.54581Z" fill="white" fill-opacity="0.6"/>
</svg>
